<svg width="96" height="20" viewBox="0 0 96 20" fill="none" xmlns="http://www.w3.org/2000/svg">
<path d="M9.09194 1.96866C9.44936 1.19379 10.5506 1.19379 10.9081 1.96866L12.5869 5.60843C12.7326 5.92423 13.0319 6.14168 13.3772 6.18262L17.3576 6.65457C18.205 6.75504 18.5454 7.80243 17.9189 8.38179L14.976 11.1032C14.7207 11.3394 14.6064 11.6912 14.6742 12.0323L15.4553 15.9637C15.6216 16.8007 14.7307 17.448 13.9861 17.0312L10.4884 15.0734C10.185 14.9035 9.81503 14.9035 9.51156 15.0734L6.01393 17.0312C5.26932 17.448 4.37836 16.8007 4.54467 15.9637L5.32584 12.0323C5.39362 11.6912 5.2793 11.3394 5.02396 11.1032L2.08114 8.38179C1.45464 7.80242 1.79496 6.75504 2.64235 6.65457L6.62277 6.18262C6.96813 6.14168 7.26742 5.92423 7.41308 5.60843L9.09194 1.96866Z" fill="#FFC300"/>
<path d="M28.0919 1.96866C28.4494 1.19379 29.5506 1.19379 29.9081 1.96866L31.5869 5.60843C31.7326 5.92423 32.0319 6.14168 32.3772 6.18262L36.3576 6.65457C37.205 6.75504 37.5454 7.80243 36.9189 8.38179L33.976 11.1032C33.7207 11.3394 33.6064 11.6912 33.6742 12.0323L34.4553 15.9637C34.6216 16.8007 33.7307 17.448 32.9861 17.0312L29.4884 15.0734C29.185 14.9035 28.815 14.9035 28.5116 15.0734L25.0139 17.0312C24.2693 17.448 23.3784 16.8007 23.5447 15.9637L24.3258 12.0323C24.3936 11.6912 24.2793 11.3394 24.024 11.1032L21.0811 8.38179C20.4546 7.80242 20.795 6.75504 21.6424 6.65457L25.6228 6.18262C25.9681 6.14168 26.2674 5.92423 26.4131 5.60843L28.0919 1.96866Z" fill="#FFC300"/>
<path d="M47.0919 1.96866C47.4494 1.19379 48.5506 1.19379 48.9081 1.96866L50.5869 5.60843C50.7326 5.92423 51.0319 6.14168 51.3772 6.18262L55.3576 6.65457C56.205 6.75504 56.5454 7.80243 55.9189 8.38179L52.976 11.1032C52.7207 11.3394 52.6064 11.6912 52.6742 12.0323L53.4553 15.9637C53.6216 16.8007 52.7307 17.448 51.9861 17.0312L48.4884 15.0734C48.185 14.9035 47.815 14.9035 47.5116 15.0734L44.0139 17.0312C43.2693 17.448 42.3784 16.8007 42.5447 15.9637L43.3258 12.0323C43.3936 11.6912 43.2793 11.3394 43.024 11.1032L40.0811 8.38179C39.4546 7.80242 39.795 6.75504 40.6424 6.65457L44.6228 6.18262C44.9681 6.14168 45.2674 5.92423 45.4131 5.60843L47.0919 1.96866Z" fill="#FFC300"/>
<path d="M66.0919 1.96866C66.4494 1.19379 67.5506 1.19379 67.9081 1.96866L69.5869 5.60843C69.7326 5.92423 70.0319 6.14168 70.3772 6.18262L74.3576 6.65457C75.205 6.75504 75.5454 7.80243 74.9189 8.38179L71.976 11.1032C71.7207 11.3394 71.6064 11.6912 71.6742 12.0323L72.4553 15.9637C72.6216 16.8007 71.7307 17.448 70.9861 17.0312L67.4884 15.0734C67.185 14.9035 66.815 14.9035 66.5116 15.0734L63.0139 17.0312C62.2693 17.448 61.3784 16.8007 61.5447 15.9637L62.3258 12.0323C62.3936 11.6912 62.2793 11.3394 62.024 11.1032L59.0811 8.38179C58.4546 7.80242 58.795 6.75504 59.6424 6.65457L63.6228 6.18262C63.9681 6.14168 64.2674 5.92423 64.4131 5.60843L66.0919 1.96866Z" fill="#FFC300"/>
<path d="M85.0919 1.96866C85.4494 1.19379 86.5506 1.19379 86.9081 1.96866L88.5869 5.60843C88.7326 5.92423 89.0319 6.14168 89.3772 6.18262L93.3576 6.65457C94.205 6.75504 94.5454 7.80243 93.9189 8.38179L90.976 11.1032C90.7207 11.3394 90.6064 11.6912 90.6742 12.0323L91.4553 15.9637C91.6216 16.8007 90.7307 17.448 89.9861 17.0312L86.4884 15.0734C86.185 14.9035 85.815 14.9035 85.5116 15.0734L82.0139 17.0312C81.2693 17.448 80.3784 16.8007 80.5447 15.9637L81.3258 12.0323C81.3936 11.6912 81.2793 11.3394 81.024 11.1032L78.0811 8.38179C77.4546 7.80242 77.795 6.75504 78.6424 6.65457L82.6228 6.18262C82.9681 6.14168 83.2674 5.92423 83.4131 5.60843L85.0919 1.96866Z" fill="#FFC300"/>
<mask id="mask0_58_19" style="mask-type:alpha" maskUnits="userSpaceOnUse" x="77" y="1" width="18" height="17">
<path d="M85.0919 1.96866C85.4494 1.19379 86.5506 1.19379 86.9081 1.96866L88.5869 5.60843C88.7326 5.92423 89.0319 6.14168 89.3772 6.18262L93.3576 6.65457C94.205 6.75504 94.5454 7.80243 93.9189 8.38179L90.976 11.1032C90.7207 11.3394 90.6064 11.6912 90.6742 12.0323L91.4553 15.9637C91.6216 16.8007 90.7307 17.448 89.9861 17.0312L86.4884 15.0734C86.185 14.9035 85.815 14.9035 85.5116 15.0734L82.0139 17.0312C81.2693 17.448 80.3784 16.8007 80.5447 15.9637L81.3258 12.0323C81.3936 11.6912 81.2793 11.3394 81.024 11.1032L78.0811 8.38179C77.4546 7.80242 77.795 6.75504 78.6424 6.65457L82.6228 6.18262C82.9681 6.14168 83.2674 5.92423 83.4131 5.60843L85.0919 1.96866Z" fill="#FFC300"/>
</mask>
<g mask="url(#mask0_58_19)">
<path d="M88.8214 6.11672L86 0V14.8L91.8779 18.0902L90.5651 11.4833L95.5106 6.90983L88.8214 6.11672Z" fill="#D9D9D9"/>
</g>
</svg>
